<?xml version="1.0" standalone="no"?>
<!DOCTYPE svg PUBLIC "-//W3C//DTD SVG 20010904//EN"
 "http://www.w3.org/TR/2001/REC-SVG-20010904/DTD/svg10.dtd">
<svg version="1.0" xmlns="http://www.w3.org/2000/svg"
 width="368pt" height="134pt" viewBox="0 0 368 134">
<g transform="translate(-120,100) scale(0.014033,-0.014033)"
fill="#000000" stroke="none">
<path d="M24960 5698 c-14 1 -32 -2 -40 -8 -8 -5 -25 -10 -38 -10 -13 0 -37
-7 -55 -16 -18 -9 -42 -29 -55 -45 -13 -16 -31 -29 -40 -29 -9 0 -32 -10 -51
-23 -20 -12 -45 -27 -56 -33 -11 -6 -28 -27 -38 -48 -10 -20 -32 -50 -50 -66
-17 -16 -46 -34 -64 -39 -17 -5 -69 -39 -115 -76 -46 -37 -101 -75 -123 -85
-22 -10 -62 -42 -90 -71 -27 -30 -68 -66 -90 -81 -22 -15 -46 -28 -52 -28 -7
0 -43 -32 -80 -71 -38 -39 -86 -79 -108 -89 -22 -10 -69 -45 -105 -79 -36 -34
-78 -69 -94 -78 -17 -8 -58 -43 -92 -77 -34 -33 -93 -91 -130 -128 -38 -36
-82 -73 -99 -81 -16 -9 -65 -49 -107 -91 -43 -41 -101 -86 -129 -100 -28 -15
-61 -26 -74 -26 -14 0 -29 9 -35 20 -6 11 -26 22 -48 26 -20 4 -47 14 -60 22
-22 14 -25 13 -60 -21 -32 -32 -35 -40 -27 -63 6 -17 22 -32 40 -38 17 -6 49
-24 73 -40 23 -16 42 -34 42 -41 0 -7 -24 -28 -52 -46 -29 -18 -64 -42 -78
-54 -14 -13 -38 -27 -55 -32 -20 -6 -33 -19 -40 -39 -5 -16 -14 -35 -18 -41
-5 -7 -16 -13 -26 -13 -10 0 -42 -21 -70 -47 -29 -27 -133 -127 -231 -223
-130 -127 -186 -189 -204 -226 -15 -30 -66 -93 -121 -150 -53 -55 -118 -123
-145 -152 -30 -32 -50 -62 -50 -76 0 -13 -9 -31 -20 -41 -11 -10 -25 -36 -31
-59 -6 -22 -24 -60 -41 -83 -16 -24 -39 -65 -50 -91 -11 -26 -31 -71 -44 -100
-13 -29 -24 -65 -24 -81 0 -16 -11 -60 -25 -97 -14 -38 -33 -82 -42 -98 -14
-25 -16 -69 -16 -315 0 -244 2 -290 15 -311 9 -14 19 -39 23 -57 3 -17 17 -39
31 -48 23 -15 24 -20 18 -75 -6 -53 -4 -61 18 -82 13 -13 33 -36 43 -52 11
-16 28 -40 37 -55 10 -14 18 -35 18 -46 0 -12 18 -39 40 -60 22 -22 46 -57 52
-77 7 -23 25 -48 45 -64 18 -14 68 -60 112 -102 43 -42 85 -91 94 -108 9 -17
30 -37 46 -44 17 -7 42 -27 56 -46 16 -21 35 -34 49 -34 13 0 30 -8 38 -17 8
-10 18 -25 21 -33 4 -8 22 -35 40 -60 24 -32 45 -49 74 -58 22 -7 59 -29 82
-48 22 -19 62 -42 88 -51 26 -9 57 -24 68 -34 11 -9 34 -21 50 -25 17 -4 41
-15 55 -24 14 -10 36 -21 50 -25 14 -4 35 -16 48 -26 13 -10 49 -21 80 -24 31
-4 81 -18 111 -31 37 -16 82 -26 140 -31 47 -3 104 -5 126 -5 22 1 81 2 132 2
86 0 95 2 125 28 18 15 47 37 65 49 18 13 38 23 45 23 8 0 24 7 36 16 12 8 22
26 22 38 0 13 9 35 20 49 11 14 20 31 20 39 0 8 -13 26 -28 41 -15 15 -37 27
-49 27 -11 0 -40 -15 -64 -33 -24 -19 -58 -41 -75 -50 -17 -9 -37 -23 -44 -32
-8 -10 -26 -21 -40 -27 -14 -5 -47 -13 -75 -18 -27 -4 -87 -4 -132 0 -74 6
-87 11 -129 43 -35 27 -53 35 -73 31 -19 -4 -32 1 -50 20 -14 15 -35 26 -51
26 -15 0 -36 10 -48 23 -12 12 -50 37 -84 54 -35 17 -74 37 -88 43 -14 6 -37
17 -51 25 -15 8 -43 34 -63 57 -20 24 -43 51 -51 61 -8 9 -23 17 -33 17 -11 0
-109 90 -228 209 -115 116 -214 223 -221 238 -6 15 -32 47 -57 71 -25 24 -46
47 -46 51 0 5 -13 25 -30 46 -20 25 -30 49 -30 71 0 18 -5 36 -10 39 -6 3 -33
40 -60 82 -35 53 -50 86 -50 109 0 18 -10 53 -22 76 -14 26 -23 61 -23 89 0
30 -6 54 -17 66 -10 11 -18 35 -18 53 0 18 8 42 17 52 13 14 18 42 20 119 2
55 8 128 13 162 5 34 14 91 19 127 5 36 17 82 25 102 9 21 16 66 16 101 0 47
5 71 18 88 10 13 36 55 58 92 21 38 50 87 64 111 14 23 35 55 48 71 12 15 22
37 22 49 0 14 12 29 34 42 18 10 63 52 100 92 36 39 66 76 66 82 0 5 13 25 30
43 16 19 42 40 57 46 16 6 37 28 48 49 12 23 35 44 59 56 21 10 47 34 58 52
11 19 24 34 28 34 5 0 43 29 87 64 43 36 89 75 103 88 14 13 45 48 70 78 25
30 73 81 107 113 40 38 63 68 65 85 3 25 7 27 63 33 33 3 70 11 83 18 18 10
26 9 44 -4 14 -9 44 -15 78 -15 47 0 60 -4 77 -24 19 -22 27 -24 80 -19 55 5
61 4 80 -21 20 -24 26 -26 105 -26 79 0 86 2 107 26 23 26 25 27 116 20 90 -6
94 -5 123 19 16 14 41 25 55 25 13 0 36 9 50 20 14 11 35 20 47 20 11 0 41 5
66 11 29 8 54 23 74 46 17 18 30 37 30 42 0 5 14 14 30 21 17 7 40 27 53 44
12 17 36 45 54 62 18 17 39 47 47 65 8 19 24 43 36 54 11 10 33 42 47 69 20
39 28 72 33 138 6 84 7 87 48 132 38 41 42 50 42 98 0 34 7 66 19 88 11 19 27
50 36 67 9 20 29 38 50 47 25 11 41 28 57 60 12 25 26 46 30 46 5 0 24 35 44
78 23 51 50 90 78 117 24 22 47 53 51 70 4 17 15 38 26 48 14 13 19 31 19 65
0 30 -9 65 -22 92 -17 33 -30 46 -48 48z m-308 -378 c43 0 60 -4 64 -15 4 -8
-6 -39 -21 -67 -15 -29 -50 -76 -77 -104 -27 -28 -56 -61 -64 -72 -8 -12 -21
-40 -29 -62 -8 -23 -24 -53 -35 -67 -11 -14 -20 -36 -20 -49 0 -13 -15 -38
-34 -57 -24 -24 -36 -47 -41 -78 -4 -24 -13 -66 -21 -93 -8 -27 -14 -63 -14
-79 0 -21 -14 -46 -45 -83 -25 -28 -45 -60 -45 -69 0 -9 -30 -45 -67 -80 -38
-35 -79 -67 -93 -70 -14 -4 -35 -15 -46 -26 -15 -14 -46 -23 -95 -30 -41 -5
-99 -21 -130 -34 -48 -21 -72 -25 -163 -25 -94 0 -108 -2 -123 -20 -11 -12
-30 -20 -49 -20 -18 0 -38 8 -49 20 -17 19 -29 21 -112 18 -72 -2 -95 0 -107
12 -10 10 -11 22 -5 37 4 12 25 33 46 46 21 14 101 88 177 166 77 78 158 152
180 163 22 11 68 47 101 78 33 32 85 73 115 93 30 19 77 56 104 81 26 25 54
46 62 46 7 0 35 21 61 46 27 25 68 56 93 69 25 13 78 58 119 100 41 43 86 81
104 87 18 6 50 27 72 48 22 20 54 43 72 50 18 6 38 18 44 26 7 9 32 14 71 14z"/>
<path d="M30602 4829 c-15 -1 -41 -4 -58 -9 -18 -4 -47 -17 -65 -30 -19 -13
-72 -62 -119 -110 -47 -47 -96 -99 -110 -116 -14 -16 -46 -45 -70 -63 -25 -19
-49 -42 -54 -50 -5 -9 -35 -42 -65 -74 -31 -32 -84 -74 -118 -94 -35 -19 -63
-39 -63 -44 0 -6 -17 -17 -37 -26 -21 -8 -60 -35 -88 -60 -27 -24 -75 -69
-106 -99 -31 -30 -62 -54 -70 -54 -8 0 -35 -20 -59 -44 -25 -25 -54 -55 -65
-67 -11 -11 -101 -100 -200 -196 -98 -96 -195 -183 -215 -193 -20 -10 -45 -35
-58 -59 -13 -23 -29 -41 -35 -42 -7 0 -32 -2 -55 -4 -28 -2 -52 -11 -68 -26
-23 -22 -30 -22 -196 -20 -95 1 -203 4 -240 7 -38 4 -73 13 -79 20 -6 8 -20
14 -30 14 -10 0 -23 -9 -28 -19 -6 -10 -28 -23 -48 -28 -30 -7 -44 -19 -70
-58 -17 -28 -44 -65 -60 -84 -15 -19 -35 -48 -43 -65 -11 -21 -28 -35 -61 -48
-31 -11 -66 -37 -104 -77 -53 -56 -61 -61 -101 -61 -24 0 -45 3 -47 8 -3 4 2
21 11 39 10 17 51 59 92 94 41 34 95 81 119 103 24 23 52 49 63 59 10 9 18 30
18 47 0 19 -7 33 -19 40 -11 5 -35 10 -54 10 -19 0 -59 -11 -89 -25 -29 -14
-60 -25 -68 -25 -8 0 -32 -9 -53 -20 -21 -12 -61 -25 -90 -30 -28 -6 -92 -13
-141 -17 -50 -3 -115 -6 -145 -5 -30 1 -65 9 -78 18 -19 12 -23 21 -18 37 4
12 9 37 12 54 3 18 2 44 -1 58 -3 13 -22 36 -41 51 l-35 27 -58 -17 c-31 -9
-61 -22 -67 -29 -5 -8 -26 -22 -45 -32 -19 -9 -44 -25 -55 -35 -11 -9 -41 -25
-67 -34 -26 -10 -50 -22 -54 -27 -3 -5 -27 -21 -54 -34 -27 -14 -56 -25 -63
-25 -8 0 -26 9 -40 20 -14 11 -44 27 -66 35 -22 7 -49 23 -60 34 -18 18 -33
21 -100 21 -64 0 -83 -4 -104 -20 -23 -18 -45 -22 -164 -26 -114 -4 -143 -9
-170 -25 -25 -16 -46 -19 -100 -17 l-67 3 -19 50 c-10 28 -25 56 -34 63 -9 6
-34 12 -56 12 -24 0 -49 -8 -65 -21 -15 -11 -55 -42 -90 -69 -34 -27 -80 -54
-101 -60 -21 -5 -44 -17 -51 -25 -7 -8 -28 -17 -47 -21 -19 -4 -42 -15 -52
-25 -9 -10 -41 -23 -70 -29 -29 -5 -63 -18 -76 -28 -12 -10 -48 -26 -78 -37
-54 -18 -58 -18 -92 -2 -20 9 -45 17 -57 17 -12 0 -40 -12 -61 -27 -37 -26
-46 -27 -126 -25 -77 3 -92 0 -135 -23 -44 -23 -60 -26 -160 -26 -83 -1 -115
-5 -127 -16 -10 -8 -46 -18 -80 -23 -35 -5 -85 -10 -110 -10 -26 0 -62 -6 -80
-14 -21 -8 -93 -15 -190 -19 -108 -4 -160 -2 -168 6 -6 6 -11 21 -11 33 0 13
9 39 21 58 11 19 45 51 74 71 30 19 57 40 60 45 3 5 26 12 50 16 30 4 51 14
60 27 8 12 15 32 15 46 0 13 -12 34 -26 47 -25 24 -25 26 -18 119 5 67 3 99
-5 109 -6 8 -27 17 -45 20 -18 4 -41 15 -51 26 -10 11 -23 20 -30 20 -6 0 -26
-11 -45 -25 -19 -14 -48 -25 -64 -25 -17 0 -42 -7 -56 -15 -14 -8 -56 -30 -94
-49 -38 -20 -81 -46 -95 -59 -14 -14 -66 -44 -115 -68 -49 -24 -102 -51 -118
-59 -15 -9 -49 -33 -74 -55 -25 -22 -63 -45 -84 -51 -21 -6 -52 -21 -67 -33
-15 -12 -53 -41 -83 -64 -30 -24 -69 -49 -86 -56 -18 -7 -44 -25 -59 -41 -16
-16 -31 -47 -36 -72 -4 -24 -8 -61 -9 -83 0 -23 5 -46 12 -53 7 -7 20 -12 29
-12 10 0 31 -11 47 -25 20 -16 42 -25 65 -25 25 0 40 6 50 20 12 17 29 21 123
26 93 5 116 10 154 32 25 15 74 40 111 57 36 16 77 38 93 48 16 11 47 19 76
19 43 1 54 -3 89 -34 21 -20 49 -42 61 -48 12 -6 33 -9 46 -6 13 4 49 -1 79
-9 36 -11 60 -13 72 -7 10 5 54 14 98 20 44 6 127 11 185 11 98 1 111 4 200
41 85 35 101 38 156 33 55 -5 63 -3 83 18 20 22 31 24 104 24 81 0 82 0 85
-27 3 -22 -7 -35 -60 -78 -35 -29 -69 -59 -75 -68 -7 -9 -13 -32 -13 -52 0
-20 5 -41 12 -48 7 -7 27 -12 46 -12 28 0 47 12 111 70 43 39 87 70 98 70 11
0 28 9 39 21 10 12 39 31 64 44 25 13 54 33 65 45 10 12 51 37 91 56 39 19 77
34 85 34 8 0 37 11 64 25 28 13 55 25 61 25 6 0 27 12 48 28 20 15 55 42 77
60 23 17 53 32 67 32 14 0 36 10 49 22 l23 22 68 -22 c58 -20 81 -22 172 -17
58 4 112 6 120 7 8 0 32 -3 53 -7 30 -6 44 -4 66 12 15 11 42 24 61 28 19 4
46 14 59 22 16 10 56 17 113 20 83 3 90 2 113 -21 17 -17 25 -36 25 -60 0 -28
-7 -40 -30 -58 -16 -12 -32 -29 -35 -39 -3 -9 -20 -20 -39 -23 -18 -4 -41 -15
-50 -25 -9 -10 -49 -33 -89 -50 -40 -18 -90 -42 -112 -53 -22 -12 -51 -31 -65
-43 -14 -12 -38 -26 -54 -29 -16 -4 -44 -24 -63 -44 -18 -20 -33 -42 -33 -50
0 -7 4 -22 10 -32 5 -10 23 -28 40 -40 27 -19 32 -20 57 -7 15 8 46 18 68 22
28 5 51 19 77 46 20 21 55 46 77 55 23 9 41 20 41 24 0 4 15 13 33 20 17 7 41
21 52 30 11 10 36 23 56 29 20 6 49 25 65 42 16 17 48 40 72 50 23 10 45 25
48 34 3 8 22 24 42 37 21 12 51 36 67 53 21 22 46 35 86 44 43 9 64 20 88 46
17 19 37 35 43 35 7 0 29 12 49 26 l37 25 56 -37 c31 -20 56 -40 56 -44 0 -4
25 -19 55 -33 50 -24 66 -26 199 -28 122 -2 149 1 171 15 22 14 32 15 61 6 23
-8 34 -18 34 -31 0 -12 -58 -77 -150 -169 -135 -133 -150 -152 -150 -182 0
-26 9 -42 34 -67 29 -28 39 -32 68 -26 18 3 58 18 88 33 30 14 60 32 65 40 6
7 36 17 66 21 33 4 68 16 84 29 15 12 35 22 44 22 9 0 37 15 61 33 25 17 52
38 60 45 8 7 55 40 104 75 51 35 104 81 122 107 18 25 58 69 89 98 l57 52 116
0 c65 1 156 3 204 5 72 3 91 1 109 -14 21 -17 21 -18 5 -49 -9 -17 -37 -54
-61 -82 l-45 -51 0 -91 c0 -83 3 -96 26 -130 17 -24 39 -41 60 -47 19 -5 46
-19 60 -30 21 -17 41 -21 94 -21 44 0 83 -7 111 -19 40 -16 70 -18 304 -16
143 1 292 5 330 10 39 4 79 14 90 21 14 8 56 12 135 10 95 -2 122 -7 157 -24
23 -12 53 -22 66 -22 13 0 32 -7 43 -15 10 -8 40 -15 66 -15 29 0 60 -8 80
-20 20 -12 51 -20 77 -20 31 0 51 -6 66 -20 16 -15 38 -21 83 -23 49 -2 66 -8
87 -27 l25 -24 53 21 c28 12 77 23 107 26 30 2 64 0 76 -5 16 -7 30 -5 55 8
19 9 51 31 71 47 31 25 37 34 31 56 -3 14 -10 32 -16 39 -8 10 -57 12 -231 8
-176 -4 -235 -2 -291 10 -38 9 -95 24 -125 34 -30 10 -67 21 -82 24 -21 5 -28
12 -28 30 0 15 22 46 63 88 56 60 66 66 111 71 42 4 56 12 105 59 31 30 68 59
83 66 15 6 34 25 43 41 8 17 28 37 43 45 15 8 48 37 72 64 25 27 60 71 79 98
19 27 74 85 123 129 48 44 101 103 118 131 16 28 30 61 30 74 0 13 22 44 59
80 33 32 64 67 70 78 6 12 11 33 11 49 0 15 6 44 14 63 7 19 20 52 30 73 9 20
23 37 32 37 8 0 22 17 31 37 8 21 24 44 34 51 10 7 30 36 43 65 13 29 27 66
31 84 3 17 17 39 31 47 17 12 24 26 24 49 0 18 -5 38 -12 45 -7 7 -40 12 -76
12 -61 0 -66 -2 -105 -40 -23 -22 -73 -63 -111 -92 -38 -28 -92 -75 -120 -105
-28 -30 -73 -66 -100 -80 -27 -13 -60 -37 -75 -51 -14 -15 -42 -34 -62 -42
-20 -8 -58 -39 -84 -69 -26 -30 -72 -77 -103 -106 -32 -29 -71 -60 -89 -69
-17 -9 -62 -44 -99 -78 -36 -35 -89 -85 -118 -112 -28 -27 -70 -57 -93 -67
-24 -10 -43 -22 -43 -27 0 -5 -27 -26 -59 -47 -47 -29 -64 -46 -78 -81 -10
-24 -26 -47 -35 -50 -9 -3 -27 -21 -38 -40 -12 -18 -25 -34 -30 -34 -4 0 -29
-23 -56 -51 -27 -28 -59 -61 -71 -73 -12 -12 -24 -40 -28 -66 -3 -25 -6 -65
-6 -90 0 -25 3 -66 6 -92 l7 -47 -54 -25 c-52 -25 -56 -25 -333 -26 -264 -2
-283 -1 -325 19 -35 16 -66 21 -133 21 l-88 0 -46 43 c-37 35 -46 51 -50 88
-4 37 -1 50 20 74 13 17 34 52 45 78 14 31 31 52 49 60 15 7 48 25 73 42 25
16 54 37 65 46 14 11 45 18 98 21 61 4 82 9 100 27 15 13 36 21 59 21 19 0 46
8 59 18 13 10 40 24 59 32 19 7 50 25 69 39 23 16 46 24 66 23 19 -2 37 4 45
13 7 8 42 29 79 47 44 21 86 51 125 92 32 34 65 75 72 92 9 21 25 36 46 43 18
7 65 44 104 84 39 40 90 89 113 110 24 20 56 63 72 94 16 31 29 64 29 74 0 9
7 19 15 23 8 3 15 11 15 17 0 7 23 36 50 65 28 29 50 60 50 69 0 9 25 43 56
75 48 51 57 66 62 106 4 43 12 54 103 146 98 99 99 101 99 148 0 31 -6 54 -16
64 -8 9 -27 16 -42 15z m-476 -600 c22 1 45 -4 52 -11 7 -7 12 -22 12 -35 0
-12 -9 -27 -20 -33 -11 -6 -20 -21 -20 -33 0 -14 -24 -44 -67 -85 -38 -35 -81
-71 -96 -79 -15 -7 -49 -35 -76 -61 -26 -26 -69 -67 -97 -92 -27 -25 -71 -59
-98 -75 -27 -17 -72 -51 -100 -77 -40 -38 -58 -48 -85 -48 -26 0 -46 -11 -85
-44 -28 -23 -69 -49 -91 -55 -22 -7 -60 -20 -85 -28 -25 -9 -57 -18 -71 -20
-15 -3 -30 0 -33 6 -4 6 28 48 70 93 47 51 95 93 125 108 27 13 52 33 55 43 3
9 18 25 32 34 15 9 48 39 73 65 26 28 54 48 67 48 12 0 52 28 94 65 49 44 84
67 108 71 19 4 42 10 50 14 8 5 42 34 74 67 33 32 78 78 99 103 22 25 47 48
56 52 9 4 34 7 57 7z m959 -119 c1 0 17 -5 36 -11 19 -6 40 -13 47 -15 10 -3
8 -11 -7 -30 -12 -15 -21 -35 -21 -45 0 -11 -3 -19 -8 -19 -4 0 -25 -36 -47
-81 -21 -44 -48 -88 -60 -97 -11 -10 -44 -45 -72 -78 -29 -34 -53 -71 -53 -81
0 -11 -12 -34 -27 -51 -16 -17 -38 -44 -50 -60 -13 -17 -26 -38 -30 -48 -3 -9
-23 -32 -44 -51 -21 -19 -40 -47 -44 -62 -3 -16 -16 -38 -28 -49 -12 -11 -35
-27 -52 -35 -16 -8 -42 -28 -57 -44 -16 -15 -43 -44 -62 -64 -18 -19 -49 -42
-67 -49 -19 -7 -47 -23 -64 -36 -16 -12 -51 -43 -78 -68 -26 -25 -55 -46 -64
-46 -9 0 -40 -16 -69 -36 -47 -33 -58 -36 -100 -31 -25 2 -53 12 -62 21 -12
11 -18 39 -20 90 l-4 74 78 81 c44 44 100 106 125 138 25 32 52 69 59 82 7 14
26 36 43 50 16 14 40 31 54 37 13 6 48 32 77 58 29 26 67 55 84 64 17 9 80 60
139 113 60 53 130 106 157 117 26 12 69 41 94 64 25 24 79 78 120 121 41 42
76 77 77 77z m-7357 -760 c37 0 49 -5 73 -31 16 -17 29 -36 29 -43 0 -6 -32
-38 -71 -71 -38 -33 -86 -75 -105 -92 -19 -18 -44 -33 -55 -33 -11 0 -38 -19
-60 -41 -22 -23 -56 -52 -75 -65 -19 -13 -47 -24 -63 -24 -15 0 -42 -11 -61
-25 -19 -14 -41 -25 -50 -25 -9 0 -25 -7 -36 -15 -10 -8 -30 -15 -44 -15 -14
0 -54 -9 -88 -20 -35 -11 -88 -20 -119 -20 -30 0 -63 5 -74 10 -12 7 -19 21
-19 38 0 19 11 39 33 59 17 17 43 34 57 38 14 4 37 20 52 36 21 23 35 29 70
29 38 0 48 6 85 44 29 30 56 47 87 55 25 6 67 25 93 41 26 17 62 36 78 44 17
8 39 24 50 36 13 14 26 19 41 16 14 -4 28 2 45 20 13 15 38 33 54 40 17 7 50
13 73 14z"/>
<path d="M15982 4739 c-4 0 -20 -8 -37 -17 -16 -9 -41 -25 -55 -35 -13 -9 -35
-17 -47 -17 -12 0 -27 -8 -32 -17 -5 -10 -35 -43 -66 -73 -32 -30 -73 -70 -92
-87 -18 -18 -39 -33 -44 -33 -6 0 -32 -18 -58 -39 -26 -22 -58 -42 -72 -46
-14 -3 -38 -19 -54 -35 -17 -15 -48 -49 -70 -74 -26 -31 -47 -46 -63 -46 -14
0 -35 -12 -50 -30 -15 -16 -31 -30 -37 -30 -5 0 -30 -14 -55 -30 -25 -17 -64
-48 -88 -70 -24 -22 -49 -40 -55 -40 -7 0 -26 -12 -42 -27 -17 -15 -91 -87
-166 -160 -119 -116 -141 -133 -170 -133 -19 0 -42 -8 -54 -20 -12 -12 -38
-23 -58 -27 -24 -4 -49 1 -79 15 -23 11 -70 28 -103 37 -33 10 -102 20 -152
23 -66 3 -97 1 -108 -8 -8 -7 -15 -23 -15 -37 0 -13 4 -33 10 -43 5 -10 24
-22 42 -25 18 -4 44 -15 57 -24 18 -11 42 -15 82 -13 38 3 67 -2 88 -12 22
-12 31 -24 31 -41 0 -13 -10 -33 -22 -45 -12 -11 -28 -20 -35 -20 -8 0 -26
-13 -41 -29 -15 -16 -38 -32 -52 -36 -14 -4 -43 -24 -65 -45 -22 -22 -61 -48
-86 -58 -26 -11 -56 -33 -67 -50 -12 -16 -36 -35 -54 -43 -18 -7 -46 -23 -61
-36 -16 -13 -38 -23 -50 -23 -12 0 -33 -7 -47 -15 -14 -8 -40 -22 -59 -30 -18
-9 -48 -26 -65 -38 -17 -11 -43 -29 -58 -39 -15 -10 -48 -22 -74 -28 -34 -8
-62 -24 -96 -55 -26 -25 -53 -45 -60 -45 -7 0 -38 -13 -68 -30 -30 -16 -70
-29 -88 -30 -27 0 -49 13 -113 67 -60 52 -79 74 -79 93 0 18 -17 43 -57 82
-32 31 -72 64 -88 75 -17 10 -54 43 -83 74 -28 31 -52 63 -52 72 0 9 -24 41
-54 72 -30 31 -56 59 -58 63 -2 4 -31 24 -65 45 -54 33 -65 36 -90 26 -15 -5
-39 -20 -51 -32 -13 -12 -30 -34 -38 -49 -8 -15 -14 -42 -14 -61 0 -20 -8 -44
-20 -57 -12 -14 -20 -38 -20 -59 0 -20 -7 -45 -15 -55 -8 -11 -15 -31 -15 -45
0 -14 -7 -35 -15 -45 -8 -11 -15 -36 -15 -55 0 -20 -7 -56 -16 -80 -12 -35
-13 -50 -3 -72 7 -18 9 -56 5 -106 -4 -53 -2 -86 7 -104 6 -14 42 -54 79 -88
l66 -62 126 2 c108 2 128 5 143 21 10 11 30 18 55 18 21 0 55 8 76 19 20 10
58 21 83 25 27 4 54 15 64 26 12 13 31 20 57 20 32 0 46 -7 83 -42 24 -24 59
-55 78 -70 19 -16 39 -28 45 -28 5 0 15 -13 22 -29 6 -17 49 -68 94 -115 47
-49 96 -91 115 -97 19 -7 42 -27 57 -50 13 -21 37 -45 52 -53 16 -8 47 -39 69
-68 22 -29 58 -64 79 -77 22 -14 55 -44 74 -67 19 -24 43 -46 52 -49 9 -3 33
-30 53 -60 20 -30 40 -55 45 -55 5 0 28 -27 51 -60 31 -44 48 -60 65 -60 13 0
29 -7 36 -16 7 -9 48 -52 91 -96 42 -44 77 -83 77 -88 0 -5 12 -22 26 -40 15
-17 41 -37 59 -45 19 -7 76 -55 128 -107 52 -51 102 -107 111 -125 9 -18 55
-73 103 -123 47 -49 91 -90 96 -90 5 0 25 -7 44 -16 26 -13 39 -14 56 -6 12 6
44 13 70 16 27 3 53 8 58 12 5 3 9 28 9 55 0 44 -5 54 -42 96 -24 26 -56 58
-71 72 -16 13 -79 73 -140 132 -62 59 -121 116 -132 128 -11 11 -81 84 -155
161 -74 78 -171 179 -216 224 -44 44 -145 142 -224 216 -79 74 -164 157 -189
185 -25 27 -80 83 -121 123 -41 41 -92 83 -113 93 -21 11 -46 33 -56 50 -10
16 -38 42 -62 58 -24 15 -55 40 -68 55 -14 14 -32 26 -41 26 -9 0 -21 5 -28
12 -7 7 -12 19 -12 28 0 8 -9 32 -20 53 l-20 38 37 15 c21 9 46 23 55 31 9 8
45 17 80 20 46 4 70 11 88 28 14 12 35 28 47 34 12 6 30 11 40 11 11 0 29 8
42 18 12 9 35 27 51 40 15 12 32 22 37 22 4 0 24 11 43 24 19 13 46 27 59 31
14 4 49 24 79 44 30 20 64 42 76 48 11 7 28 13 37 13 8 0 30 11 49 25 19 14
39 25 45 25 7 0 42 29 79 65 37 36 86 75 109 86 23 12 49 27 57 34 8 7 26 16
40 20 14 4 49 30 77 57 52 48 53 49 120 49 38 0 84 0 103 1 19 0 58 -1 85 -3
36 -3 65 2 105 20 46 20 63 22 110 16 30 -4 71 -8 90 -8 19 1 68 5 109 11 41
5 77 16 82 23 5 8 9 17 9 21 0 4 34 27 75 50 42 24 90 51 108 60 17 10 85 70
150 135 64 64 117 122 117 129 0 6 12 29 27 50 17 25 29 59 34 95 4 40 16 71
39 103 17 26 39 68 47 94 9 26 24 58 35 71 10 13 18 31 18 40 0 9 9 31 20 49
11 18 20 44 20 59 0 15 14 41 35 64 19 22 35 47 35 57 0 10 -15 32 -32 48 -18
17 -46 36 -61 42 -15 7 -31 12 -35 11z m-263 -429 c31 0 53 -6 61 -15 9 -11 8
-24 -6 -62 -9 -26 -32 -62 -51 -80 -18 -18 -33 -41 -33 -51 0 -10 -8 -27 -19
-36 -10 -9 -22 -31 -25 -48 -4 -22 -32 -57 -93 -115 -47 -46 -102 -90 -121
-99 -19 -8 -40 -21 -46 -28 -6 -8 -47 -28 -91 -44 -44 -17 -99 -32 -123 -35
-24 -3 -53 -14 -64 -24 -16 -15 -41 -19 -138 -21 -93 -3 -118 -1 -123 10 -3 9
22 42 61 82 49 50 85 77 146 106 51 24 103 59 138 93 32 29 77 67 100 83 24
16 60 45 81 65 20 20 54 45 75 55 20 9 55 37 78 60 22 24 58 51 79 60 21 8 44
22 52 30 9 8 34 14 62 14z m-3225 -1110 c22 0 46 -10 71 -30 21 -16 41 -30 46
-30 4 0 20 -12 34 -27 15 -16 31 -39 36 -53 5 -14 26 -35 47 -45 20 -11 54
-38 74 -60 21 -22 40 -48 43 -57 4 -9 15 -20 26 -23 10 -4 33 -18 49 -32 18
-15 30 -34 30 -50 0 -13 -4 -33 -10 -43 -5 -10 -26 -29 -47 -41 -31 -19 -52
-23 -129 -25 -77 -1 -100 -5 -136 -25 -36 -20 -58 -23 -135 -24 -50 0 -94 3
-98 7 -4 3 -11 24 -16 45 -5 21 -6 112 -3 203 4 102 11 174 19 190 7 14 21 41
32 60 10 19 22 41 26 48 5 6 23 12 41 12z"/>
<path d="M19404 3810 c-5 -1 -20 -7 -34 -15 -14 -8 -37 -12 -52 -9 -15 3 -40
-2 -57 -10 -17 -9 -35 -25 -41 -35 -5 -11 -10 -41 -10 -68 0 -35 8 -59 28 -89
15 -23 32 -50 37 -59 8 -13 27 -19 66 -23 43 -3 59 0 72 13 11 11 17 33 17 66
0 33 6 59 20 77 10 15 22 39 26 54 5 23 0 34 -29 63 -19 19 -39 35 -43 35z"/>
<path d="M16336 3590 c-6 0 -20 -7 -30 -15 -11 -8 -32 -15 -46 -15 -15 0 -48
-6 -73 -14 -31 -9 -68 -33 -109 -71 -35 -32 -79 -64 -98 -72 -19 -8 -54 -33
-77 -56 -23 -22 -45 -53 -48 -69 -4 -15 -15 -33 -25 -38 -11 -6 -40 -39 -65
-75 -31 -42 -54 -65 -67 -65 -10 0 -42 -10 -70 -22 -42 -18 -55 -20 -80 -10
-22 8 -37 7 -63 -4 -19 -8 -54 -14 -79 -14 -37 0 -53 -7 -96 -41 -44 -35 -51
-45 -48 -71 2 -19 13 -38 28 -49 21 -16 31 -17 62 -9 21 6 42 19 48 29 5 10
23 24 40 31 19 8 50 10 81 7 28 -4 57 -11 64 -17 7 -6 15 -23 18 -39 3 -16 16
-44 29 -62 13 -19 52 -61 86 -94 l63 -59 94 -6 c66 -3 98 -10 111 -21 11 -9
29 -20 41 -23 11 -4 27 -13 33 -21 7 -8 20 -15 30 -15 10 0 23 7 30 15 7 8 24
15 38 15 13 0 40 -9 58 -21 30 -18 47 -20 148 -17 97 3 117 6 136 23 17 15 37
20 89 21 54 1 82 8 156 42 50 22 113 47 142 56 28 9 58 16 66 16 7 0 22 -10
33 -22 11 -13 25 -35 31 -49 7 -15 34 -39 67 -58 41 -23 68 -31 104 -31 36 0
57 6 77 22 21 17 42 22 91 23 51 1 68 5 87 23 14 13 36 22 56 22 21 0 41 9 58
26 14 14 37 30 51 35 14 5 45 10 69 11 25 0 54 -7 69 -17 14 -9 32 -33 41 -53
8 -19 27 -48 41 -64 26 -27 29 -27 111 -23 67 4 89 9 106 25 12 11 35 20 52
20 17 0 37 8 44 17 8 9 46 31 84 49 39 18 81 44 94 58 14 14 31 26 39 26 7 0
36 21 63 48 27 26 63 61 80 78 17 18 51 52 74 78 31 33 50 46 70 46 15 0 40
-11 57 -25 21 -18 36 -23 54 -19 15 4 44 -2 74 -15 27 -11 64 -21 82 -21 19 0
43 -7 54 -15 10 -8 31 -15 45 -15 14 0 33 -8 41 -17 8 -10 18 -24 22 -31 5 -8
-18 -38 -65 -85 -40 -40 -81 -85 -91 -102 -12 -20 -18 -49 -18 -87 0 -38 5
-62 16 -72 8 -9 32 -16 53 -16 20 0 54 -9 76 -20 22 -11 55 -20 75 -20 20 0
41 -5 48 -12 9 -9 21 -9 50 0 22 7 48 12 59 12 11 0 31 8 44 19 13 10 42 21
64 25 22 4 45 12 51 17 5 4 36 15 68 23 46 12 67 25 101 61 37 40 47 46 76 43
28 -2 38 -10 55 -43 14 -28 30 -44 55 -52 19 -7 52 -12 74 -12 22 -1 68 8 102
18 34 10 74 28 89 40 15 12 32 21 39 21 6 0 19 8 27 18 8 9 18 28 21 42 4 17
19 32 41 43 19 9 50 37 68 63 18 26 45 59 61 74 19 20 27 38 27 63 0 25 6 39
23 50 13 8 39 52 61 103 21 49 42 94 46 99 5 6 22 35 38 66 22 43 30 74 35
141 5 63 4 88 -6 96 -6 6 -28 13 -47 17 -28 5 -43 1 -74 -20 -22 -15 -55 -32
-74 -38 -28 -10 -42 -25 -69 -74 -27 -48 -41 -64 -67 -73 -19 -6 -40 -18 -48
-28 -9 -9 -18 -29 -22 -43 -3 -15 -24 -42 -46 -60 -22 -19 -64 -55 -93 -80
-29 -26 -65 -54 -82 -63 -16 -9 -47 -27 -67 -39 -20 -12 -62 -44 -92 -70 -31
-27 -56 -55 -56 -62 0 -8 -12 -22 -27 -32 -16 -9 -56 -43 -90 -75 -45 -43 -69
-58 -90 -58 -16 0 -46 -9 -68 -20 -22 -11 -49 -20 -60 -20 -11 0 -29 -6 -40
-14 -11 -7 -63 -16 -117 -20 -88 -6 -98 -5 -107 11 -7 15 -3 29 19 63 15 25
38 55 51 67 13 12 73 70 132 128 66 65 107 113 105 123 -2 9 -18 25 -36 35
-30 18 -36 18 -80 4 -26 -8 -83 -18 -127 -22 -68 -6 -95 -3 -180 19 -76 20
-106 33 -130 56 -18 17 -49 35 -70 41 -21 6 -60 29 -85 50 -25 21 -52 39 -59
39 -6 0 -37 -18 -67 -41 -37 -27 -62 -55 -74 -82 -10 -23 -38 -58 -62 -79 -23
-20 -59 -50 -79 -67 -20 -17 -44 -31 -53 -31 -9 0 -38 -21 -65 -47 -26 -27
-69 -61 -95 -78 -26 -16 -54 -34 -62 -40 -10 -7 -20 -6 -31 3 -10 6 -29 17
-42 22 -17 8 -21 15 -16 28 4 9 10 28 12 42 2 14 -2 43 -9 65 -11 33 -18 40
-38 39 -14 -1 -45 -9 -70 -19 -25 -9 -53 -25 -63 -36 -10 -10 -28 -19 -41 -19
-13 0 -35 -9 -49 -20 -14 -11 -34 -20 -45 -20 -12 0 -31 -4 -44 -9 -13 -5 -35
-20 -50 -34 -23 -21 -36 -25 -103 -25 -60 -1 -88 -7 -130 -27 -30 -14 -70 -25
-89 -25 -19 0 -38 5 -41 11 -4 5 -4 36 0 68 6 56 8 60 45 76 21 10 50 29 63
44 14 14 34 41 44 60 12 22 30 38 48 43 15 4 41 21 57 38 15 17 28 38 28 47 0
8 -9 28 -21 44 -14 20 -29 29 -47 29 -15 0 -40 -9 -57 -20 -16 -11 -44 -20
-62 -20 -25 0 -41 -9 -70 -41 -21 -23 -55 -53 -77 -68 -21 -14 -55 -36 -75
-48 -20 -12 -65 -49 -101 -81 -38 -34 -79 -62 -98 -66 -17 -4 -47 -18 -66 -31
-20 -13 -53 -29 -75 -35 -21 -5 -45 -8 -53 -5 -8 3 -37 -5 -63 -19 l-48 -26
-269 0 c-249 0 -272 1 -308 20 -22 11 -52 20 -68 20 -18 0 -45 12 -68 31 -22
17 -43 38 -48 46 -5 9 -6 40 -2 70 6 51 4 57 -19 79 -19 17 -25 32 -23 52 2
16 10 28 21 30 12 3 22 -7 32 -31 7 -18 22 -40 31 -48 13 -10 45 -14 130 -12
l112 2 69 47 c37 26 82 60 98 75 17 16 35 29 41 29 5 0 21 13 36 30 14 16 40
55 57 85 30 53 31 59 28 153 -2 54 -7 104 -11 111 -5 7 -29 26 -54 42 -25 16
-51 29 -56 29z m-161 -252 l80 -3 3 -39 c3 -32 -2 -44 -30 -73 -18 -19 -47
-43 -64 -54 -18 -11 -65 -23 -109 -29 -56 -7 -82 -7 -92 1 -7 6 -13 24 -13 40
0 16 8 36 18 44 9 8 42 37 72 65 l55 50 80 -2z m4013 -234 c15 -17 21 -33 17
-47 -4 -12 -22 -53 -40 -91 -24 -50 -57 -93 -117 -153 l-82 -84 -56 7 c-30 4
-58 12 -62 18 -4 6 -8 21 -8 32 0 12 7 28 16 35 9 8 25 33 35 57 12 27 29 47
46 55 16 7 54 31 86 55 31 23 57 48 57 53 0 6 19 29 43 50 l42 40 23 -27z"/>
</g>
</svg>